<svg xmlns="http://www.w3.org/2000/svg" width="600" height="600" viewBox="0 0 600 600">
  <title>Shopping Instagram highlights Icon</title>
  <g>
    <rect width="600" height="600" fill="#ffebe6"/>
    <g>
      <g>
        <path d="M349.632,181.757H205.461a36.654,36.654,0,0,0-36.654,36.653v53.852a36.655,36.655,0,0,0,36.654,36.654h18.027c3.764,15.109,12.65,48.658,17.662,50.09,5.056,1.445,21.956-34.334,29.123-50.09h79.359a36.655,36.655,0,0,0,36.654-36.654V218.41A36.654,36.654,0,0,0,349.632,181.757Z" fill="#7c84e7"/>
        <rect x="210.12" y="257.15" width="134.854" height="7.227" fill="#fff"/>
        <rect x="210.12" y="228.309" width="134.854" height="7.227" fill="#fff"/>
      </g>
      <path d="M160.188,156.986c-9.169,1.8-17.791,12.527-17.791,12.527s-8.622-10.723-17.79-12.527-18.883,5.313-17.68,17.938c2.4,25.25,35.47,42.084,35.47,42.084s33.066-16.834,35.471-42.084C179.071,162.3,169.356,155.182,160.188,156.986Z" fill="#e06c90"/>
      <path d="M180.677,230.745c-5.129,1.009-9.953,7.009-9.953,7.009s-4.824-6-9.953-7.009-10.565,2.973-9.892,10.036c1.345,14.127,19.845,23.545,19.845,23.545s18.5-9.418,19.845-23.545C191.242,233.718,185.807,229.736,180.677,230.745Z" fill="#ffc736"/>
      <g>
        <path d="M337.923,243.094c-11.21-3.5-45.54,9.108-51.846,51.145s-6.375,54.039-12.681,66.65-20.948,29.335-8.337,60.862,54.648,22.42,82.673,0,43.611-5.276,54.648,0,37.833,26.733,64.457,20.373,27.324-41.391,25.922-62.41-23.12-104.561-46.24-128.3-50.445-33.545-74.266-29.341S337.923,243.094,337.923,243.094Z" fill="#c1754f"/>
        <path d="M379.181,285.876s-71.305,21.849-71.305,24.134.761,82.227,15.988,100.5,40.1,25.392,55.317,25.392,40.09-7.12,55.317-25.392,15.989-98.217,15.989-100.5S379.181,285.876,379.181,285.876Z" fill="#ffc736"/>
        <path d="M309.644,348.207s41.591-7.727,54.2-45.561c0,0,41.566,58.193,86.641,45.561,0,0,14.248-49.675,3.038-62.331s-83.262-27.368-100.833-20.362-42.794,21.018-49.8,34.33S298.179,345.425,309.644,348.207Z" fill="#c1754f"/>
      </g>
    </g>
  </g>
</svg>
